<?xml version="1.0" encoding="iso-8859-1"?>
<!-- Uploaded to: SVG Repo, www.svgrepo.com, Generator: SVG Repo Mixer Tools -->
<!DOCTYPE svg PUBLIC "-//W3C//DTD SVG 1.1//EN" "http://www.w3.org/Graphics/SVG/1.1/DTD/svg11.dtd">
<svg version="1.1" id="Capa_1" xmlns="http://www.w3.org/2000/svg" xmlns:xlink="http://www.w3.org/1999/xlink" 
	 width="800px" height="800px" viewBox="0 0 337.019 337.02"
	 xml:space="preserve">
<g>
	<g>
		<path style="fill:#000000;" d="M168.51,336.414l2.195,0.605v-1.212l122.96-33.919V0L168.51,34.522L43.354,0v301.889l122.96,33.919
			v1.212L168.51,336.414z M57.993,33.276l65.849,17.565v65.849L57.993,99.125V33.276z M158.973,233.799l-65.849-17.566v-65.852
			l65.849,17.566V233.799z M183.88,48.506l92.22-25.442v265.444l-92.22,25.439V48.506z"/>
		<path style="fill:#000000;" d="M191.21,134.073l77.56-20.685V35.415L191.21,56.1V134.073z M202.921,65.105l54.138-14.446v53.729
			l-54.138,14.443V65.105z"/>
	</g>
</g>
</svg>