<?xml version="1.0" encoding="utf-8"?>
<!-- Uploaded to: SVG Repo, www.svgrepo.com, Generator: SVG Repo Mixer Tools -->
<svg fill="#000000" version="1.1" id="Layer_1" xmlns="http://www.w3.org/2000/svg" xmlns:xlink="http://www.w3.org/1999/xlink" 
	 viewBox="0 0 256 256" xml:space="preserve">
<rect x="56.1" y="4.5" width="25.7" height="10.1"/>
<g>
	<path d="M82.1,72.8H82V25.5H56.3v47.3c-13.6,3-23.6,14.7-23.6,28.4v145.4c0,3.3,2.8,5.9,6.1,5.9h60.7c3.3,0,6.1-2.6,6.1-5.9V101.2
		C105.7,87.4,95.6,75.9,82.1,72.8z M98.4,206.3H40v-72.7h58.4V206.3z"/>
</g>
<g>
	<path d="M148.6,105.5c0-7.3-5.9-13.2-13.2-13.2c-7.3,0-13.2,5.9-13.2,13.2c0,7.3,5.9,13.2,13.2,13.2
		C142.7,118.8,148.6,112.8,148.6,105.5z"/>
	<path d="M178,105.5c0-7.3-5.9-13.2-13.2-13.2c-7.3,0-13.2,5.9-13.2,13.2c0,7.3,5.9,13.2,13.2,13.2C172.1,118.8,178,112.8,178,105.5
		z"/>
	<path d="M181.3,105.5c0,7.3,5.9,13.2,13.2,13.2c7.3,0,13.2-5.9,13.2-13.2c0-7.3-5.9-13.2-13.2-13.2
		C187.3,92.3,181.3,98.2,181.3,105.5z"/>
	<path d="M224.8,92.3c-7.3,0-13.2,5.9-13.2,13.2c0,7.3,5.9,13.2,13.2,13.2c7.3,0,13.2-5.9,13.2-13.2C238,98.2,232.1,92.3,224.8,92.3
		z"/>
	<path d="M162.9,132c0-7.3-5.9-13.2-13.2-13.2c-7.3,0-13.2,5.9-13.2,13.2c0,7.3,5.9,13.2,13.2,13.2C157,145.3,162.9,139.3,162.9,132
		z"/>
	<path d="M179.5,145.3c7.3,0,13.2-5.9,13.2-13.2c0-7.3-5.9-13.2-13.2-13.2c-7.3,0-13.2,5.9-13.2,13.2
		C166.3,139.3,172.2,145.3,179.5,145.3z"/>
	<path d="M179.5,171.8c-7.3,0-13.2,5.9-13.2,13.2c0,7.3,5.9,13.2,13.2,13.2c7.3,0,13.2-5.9,13.2-13.2
		C192.7,177.7,186.8,171.8,179.5,171.8z"/>
	<path d="M177.8,158.5c0-7.3-5.9-13.2-13.2-13.2c-7.3,0-13.2,5.9-13.2,13.2c0,7.3,5.9,13.2,13.2,13.2
		C171.9,171.8,177.8,165.8,177.8,158.5z"/>
	<path d="M194.4,145.3c-7.3,0-13.2,5.9-13.2,13.2c0,7.3,5.9,13.2,13.2,13.2c7.3,0,13.2-5.9,13.2-13.2
		C207.6,151.2,201.7,145.3,194.4,145.3z"/>
	<path d="M209.7,118.8c-7.3,0-13.2,5.9-13.2,13.2c0,7.3,5.9,13.2,13.2,13.2c7.3,0,13.2-5.9,13.2-13.2
		C222.9,124.7,217,118.8,209.7,118.8z"/>
	<path d="M123.8,89.2c13.2,0.5,25.3-14.5,25.3-14.5v-0.3c0,0,3.8,4.8,11.5,6.1c0,0,6.3-11.8-1.5-21.2h17.1v29.6v3.3h8.6v-3v-52
		c0-8.9,7.2-16.1,16.1-16.1v-8.6c-13.5,0-24.7,11-24.7,24.7v13.5h-11.7c7.2-6.1,6.6-16.3,6.6-16.3c-7.6-2.1-13,0.5-13,0.5v-0.3
		c0,0-4.8-18.8-16.8-23.9c-11.5,12.3-7.1,29.8-7.1,29.8c-13.8-17.8-35.9,1.8-35.9,1.8S110,69.4,130,59.1
		C130,59.1,118.5,73,123.8,89.2z"/>
</g>
</svg>