<?xml version="1.0" encoding="iso-8859-1"?>
<!-- Uploaded to: SVG Repo, www.svgrepo.com, Generator: SVG Repo Mixer Tools -->
<svg height="800px" width="800px" version="1.1" id="Layer_1" xmlns="http://www.w3.org/2000/svg" xmlns:xlink="http://www.w3.org/1999/xlink" 
	 viewBox="0 0 511.999 511.999" xml:space="preserve">
<path style="fill:#F99B46;" d="M250.864,204.675c0.061,0.003,0.122,0.013,0.183,0.016c-1.239-0.071-2.49-0.12-3.747-0.12h-137.32
	h-9.916H36.599v63.469c0,35.045,28.414,63.463,63.467,63.463h146.635c35.088,0,63.529,28.444,63.529,63.531
	c0,35.086-28.442,63.527-63.529,63.527c70.138,0,126.997-56.857,126.997-126.996C373.696,262.824,319.071,206.878,250.864,204.675z"
	/>
<path style="fill:#F47C2C;" d="M302.402,106.702c0.061,0.002,0.122,0.013,0.183,0.016c-1.241-0.071-2.49-0.119-3.748-0.119H161.52
	h-9.917H88.136v63.469c0,12.725,3.761,24.567,10.212,34.504h1.717h9.916h137.32c1.258,0,2.507,0.048,3.747,0.12
	c-0.061-0.003-0.122-0.013-0.183-0.016c68.207,2.203,122.832,58.149,122.832,126.891c0,1.418-0.031,2.826-0.078,4.234
	c31.309-23.128,51.615-60.294,51.615-102.206C425.235,164.852,370.609,108.905,302.402,106.702z"/>
<g>
	<path style="fill:#F99B46;" d="M304.882,8.082h-93.196h-9.917h-63.466v63.47c0,12.725,3.761,24.569,10.212,34.503h1.715h9.918
		h137.32c1.256,0,2.506,0.048,3.747,0.12c-0.061-0.002-0.122-0.013-0.183-0.015c68.207,2.201,122.832,58.15,122.832,126.892
		c0,1.416-0.031,2.826-0.078,4.234c31.309-23.13,51.615-60.294,51.615-102.207c0-68.742-54.625-124.69-122.832-126.891
		c0.061,0.002,0.122,0.013,0.183,0.016c-1.241-0.072-2.49-0.121-3.747-0.121h-19.339"/>
	<path style="fill:#F99B46;" d="M213.62,411.486h-59.045v23.485c0,12.555,10.619,22.732,23.718,22.732
		c-13.099,0-23.718,10.178-23.718,22.732v23.483h14.534h24.784h19.727c13.1,0,23.717-10.177,23.717-22.732v-23.483V434.22
		C237.337,421.665,226.72,411.486,213.62,411.486z"/>
</g>
<g style="opacity:0.15;">
	<path style="fill:#202020;" d="M61.068,268.041v-63.469H34.802v63.469c0,35.045,28.414,63.463,63.467,63.463h26.266
		C89.482,331.504,61.068,303.087,61.068,268.041z"/>
	<path style="fill:#202020;" d="M244.904,458.562c29.473,0,56.598-10.042,78.147-26.889c7.326-10.354,11.647-22.989,11.647-36.638
		c0-35.088-28.442-63.531-63.529-63.531h-26.266c35.088,0,63.529,28.444,63.529,63.531
		C308.433,430.12,279.991,458.562,244.904,458.562z"/>
</g>
<g>
	<g style="opacity:0.15;">
		<path style="fill:#202020;" d="M112.718,106.6H86.34v63.469c0,12.725,3.761,24.567,10.212,34.504h1.717h9.916h14.744
			c-6.451-9.936-10.212-21.779-10.212-34.504V106.6H112.718z"/>
		<path style="fill:#202020;" d="M275.446,204.675c0.061,0.003,0.122,0.013,0.183,0.016c-1.239-0.071-2.49-0.12-3.747-0.12h-26.378
			c1.258,0,2.507,0.048,3.747,0.12c-0.061-0.003-0.122-0.013-0.183-0.016c68.207,2.203,122.832,58.149,122.832,126.891
			c0,1.418-0.031,2.826-0.078,4.234c9.362-6.915,17.729-15.093,24.875-24.27C387.297,252.257,336.886,206.659,275.446,204.675z"/>
	</g>
	<g style="opacity:0.15;">
		<path style="fill:#202020;" d="M162.96,8.082h-26.453v63.47c0,12.725,3.761,24.569,10.212,34.503h1.715h9.918h14.82
			c-6.451-9.934-10.212-21.778-10.212-34.503L162.96,8.082L162.96,8.082z"/>
		<path style="fill:#202020;" d="M325.686,106.16c0.063,0.002,0.123,0.013,0.184,0.015c-1.24-0.071-2.49-0.12-3.748-0.12h-26.452
			c1.256,0,2.506,0.048,3.747,0.12c-0.061-0.002-0.122-0.013-0.183-0.015c68.207,2.201,122.832,58.15,122.832,126.892
			c0,1.416-0.031,2.826-0.078,4.234c9.389-6.935,17.778-15.142,24.938-24.351C437.494,153.7,387.099,108.142,325.686,106.16z"/>
	</g>
</g>
<g style="opacity:0.15;">
	<path style="fill:#202020;" d="M202.84,457.702c-13.099,0-23.718-10.177-23.718-22.732v-23.485h-26.344v23.485
		c0,12.555,10.619,22.732,23.718,22.732c-13.099,0-23.718,10.178-23.718,22.732v23.483h14.534h11.81v-23.483
		C179.123,467.88,189.743,457.702,202.84,457.702z"/>
</g>
<g>
	<path style="fill:#DCE0E2;" d="M113.234,258.935c0,9.918-8.036,17.952-17.95,17.952c-9.916,0-17.95-8.034-17.95-17.952
		c0-9.909,8.034-17.947,17.95-17.947C105.198,240.988,113.234,249.026,113.234,258.935z"/>
	<path style="fill:#DCE0E2;" d="M164.773,160.963c0,9.917-8.038,17.952-17.952,17.952c-9.915,0-17.95-8.035-17.95-17.952
		c0-9.909,8.035-17.949,17.95-17.949C156.736,143.014,164.773,151.053,164.773,160.963z"/>
	<path style="fill:#DCE0E2;" d="M214.939,62.445c0,9.919-8.038,17.953-17.952,17.953c-9.916,0-17.95-8.034-17.95-17.953
		c0-9.909,8.034-17.948,17.95-17.948C206.902,44.497,214.939,52.536,214.939,62.445z"/>
</g>
<g>
	<path style="fill:#202020;" d="M95.284,232.907c-14.354,0-26.032,11.677-26.032,26.029c0,14.355,11.678,26.034,26.032,26.034
		s26.032-11.679,26.032-26.034C121.316,244.583,109.638,232.907,95.284,232.907z M95.284,268.806c-5.442,0-9.868-4.428-9.868-9.871
		c0-5.44,4.427-9.865,9.868-9.865c5.442,0,9.868,4.426,9.868,9.865C105.152,264.378,100.726,268.806,95.284,268.806z"/>
	<path style="fill:#202020;" d="M146.821,134.932c-14.354,0-26.032,11.678-26.032,26.031c0,14.355,11.678,26.034,26.032,26.034
		c14.355,0,26.034-11.679,26.034-26.034C172.855,146.61,161.176,134.932,146.821,134.932z M146.821,170.833
		c-5.442,0-9.868-4.428-9.868-9.871c0-5.442,4.427-9.867,9.868-9.867c5.443,0,9.871,4.426,9.871,9.867
		C156.691,166.406,152.264,170.833,146.821,170.833z"/>
	<path style="fill:#202020;" d="M196.987,88.48c14.355,0,26.034-11.68,26.034-26.035c0-14.352-11.679-26.03-26.034-26.03
		c-14.354,0-26.032,11.678-26.032,26.03C170.955,76.8,182.633,88.48,196.987,88.48z M196.987,52.579
		c5.443,0,9.871,4.426,9.871,9.866c0,5.444-4.428,9.872-9.871,9.872c-5.442,0-9.868-4.428-9.868-9.872
		C187.119,57.004,191.545,52.579,196.987,52.579z"/>
	<path style="fill:#202020;" d="M483.482,135.077c0-35.307-13.537-68.699-38.121-94.028c-24.519-25.261-57.372-39.801-92.51-40.939
		c-0.001,0-0.002,0-0.003,0c-0.04-0.009-0.085-0.002-0.128-0.004C351.371,0.034,350.151,0,349.005,0h-19.339
		c-4.463,0-8.082,3.617-8.082,8.082s3.618,8.082,8.082,8.082h19.339c0.969,0,2.041,0.034,3.275,0.108
		c0.019,0.001,0.037,0.002,0.054,0.003c0.18,0.01,0.364,0.014,0.536,0.01c10.726,0.395,21.058,2.184,30.835,5.179
		c0.836,10.16,2.457,50.301-18.29,94.929c-5.975-3.432-12.195-6.4-18.616-8.868c-14.334-5.694-29.677-8.928-45.486-9.439
		c-0.001,0-0.001,0-0.002,0c-0.038-0.009-0.07-0.003-0.106-0.003c-1.363-0.072-2.589-0.108-3.737-0.108h-15.668
		c5.446-38.388-0.48-66.907-5.126-81.809h28.209c4.464,0,8.082-3.617,8.082-8.082s-3.617-8.082-8.082-8.082H138.303
		c-4.463,0-8.082,3.617-8.082,8.082v63.47c0,9.317,1.809,18.451,5.282,26.965H88.136c-4.463,0-8.082,3.617-8.082,8.082v63.469
		c0,9.118,1.737,18.061,5.067,26.422H36.599c-4.463,0-8.082,3.617-8.082,8.082v63.469c0,39.45,32.096,71.545,71.548,71.545h63.234
		c0.009,0,0.018,0.002,0.027,0.002c0.009,0,0.017-0.002,0.026-0.002h2.762v22.61c0,4.464,3.618,8.082,8.082,8.082
		s8.082-3.617,8.082-8.082v-22.61h21.163v22.61c0,4.464,3.618,8.082,8.082,8.082c4.463,0,8.082-3.617,8.082-8.082v-22.61h21.162
		v22.61c0,4.464,3.618,8.082,8.082,8.082c4.464,0,8.082-3.617,8.082-8.082v-21.648c25.702,4.816,45.218,27.409,45.218,54.487
		c0,30.573-24.874,55.445-55.447,55.445c-0.438,0-0.863,0.044-1.281,0.111v-16.371c0-16.992-14.265-30.816-31.799-30.816h-59.045
		c-4.463,0-8.082,3.617-8.082,8.082v23.485c0,8.991,3.997,17.093,10.357,22.732c-6.36,5.638-10.357,13.74-10.357,22.732v23.483
		c0,4.464,3.618,8.082,8.082,8.082h14.534c4.463,0,8.082-3.617,8.082-8.082c0-4.464-3.618-8.082-8.082-8.082h-6.452v-15.402
		c0-8.079,7.014-14.651,15.637-14.651h50.962v15.402c0,8.079-7.014,14.651-15.636,14.651h-19.727c-4.463,0-8.082,3.617-8.082,8.082
		c0,4.464,3.618,8.082,8.082,8.082h19.727c17.533,0,31.799-13.823,31.799-30.814v-14.653c0.418,0.067,0.845,0.111,1.281,0.111
		c71.668,0,130.469-56.105,134.81-126.698c30.76-24.135,49.679-60.766,51.626-99.693
		C464.758,214.715,483.482,175.83,483.482,135.077z M178.293,449.621c-8.622,0-15.637-6.572-15.637-14.651v-15.403h50.964
		c8.621,0,15.635,6.573,15.635,14.653v15.401L178.293,449.621L178.293,449.621z M257.941,324.311c-2.623-0.415-5.292-0.685-8-0.807
		c-0.358-0.049-0.721-0.082-1.092-0.082c-0.242,0-0.482,0.015-0.719,0.037c-0.477-0.01-0.949-0.037-1.429-0.037h-72.579
		c14.39-53.023,6.638-92.31,0.863-110.769h72.316c0.236,0,0.48,0.002,0.73,0.006c0.678,0.012,1.423,0.04,2.254,0.084
		c0.094,0.005,0.182,0.009,0.277,0.014c0.003,0,0.006,0,0.01,0.001c0.002,0,0.004,0,0.006,0c0.01,0.001,0.019,0.001,0.028,0.002
		c0.002,0,0.005,0,0.008,0c0.004,0,0.01,0.001,0.014,0.001c0.071,0.003,0.141,0.001,0.211,0.003
		c0.108,0.002,0.216,0.006,0.326,0.006c10.727,0.395,21.062,2.185,30.84,5.18C282.935,228.921,284.839,275.003,257.941,324.311z
		 M298.838,114.681c0.951,0,1.997,0.032,3.249,0.103c0.013,0.001,0.024,0.002,0.036,0.002c0.018,0.001,0.036,0.002,0.054,0.003
		c0.178,0.01,0.355,0.016,0.527,0.01c10.726,0.395,21.059,2.185,30.836,5.179c0.837,10.173,2.463,50.418-18.381,95.128
		c-19.266-11.35-41.164-17.768-64.031-18.507c-0.04-0.001-0.08-0.002-0.12-0.003c-1.35-0.07-2.567-0.106-3.705-0.106h-15.668
		c5.445-38.388-0.481-66.907-5.127-81.809C226.507,114.681,298.838,114.681,298.838,114.681z M364.477,265.364
		c-0.152-0.27-0.306-0.54-0.461-0.809c-0.821-1.433-1.666-2.853-2.541-4.257c-0.124-0.198-0.252-0.394-0.376-0.593
		c-0.913-1.447-1.848-2.883-2.818-4.298c-0.024-0.034-0.045-0.069-0.069-0.102c-0.98-1.427-1.996-2.832-3.033-4.224
		c-0.154-0.207-0.305-0.415-0.46-0.621c-1.002-1.329-2.032-2.639-3.085-3.935c-0.194-0.238-0.389-0.475-0.584-0.712
		c-1.066-1.292-2.153-2.569-3.27-3.826c-0.165-0.186-0.334-0.37-0.501-0.555c-1.181-1.315-2.382-2.615-3.62-3.889
		c-4.69-4.833-9.687-9.269-14.946-13.298c20.033-41.648,21.941-79.486,21.399-97.661c37.504,18.62,63.425,56.371,65.529,100.634
		c-6.202,7.779-23.078,26.303-51.059,38.332C364.547,265.486,364.511,265.425,364.477,265.364z M422.774,181.169
		c19.137-8.493,33.492-19.614,43.278-28.937c-3.718,25.219-15.522,48.748-33.516,66.837
		C431.134,205.926,427.835,193.182,422.774,181.169z M400.275,27.929c37.635,18.079,63.918,55.296,66.778,99.172
		c-4.863,6.416-21.827,26.592-51.448,39.568c-5.576-9.747-12.403-18.854-20.408-27.102c-5.045-5.198-10.448-9.934-16.145-14.2
		C398.97,83.759,400.827,46.001,400.275,27.929z M146.384,16.164h113.228c3.926,10.7,12.266,39.906,5.859,81.809H153.1
		c-4.404-8.087-6.715-17.137-6.715-26.421V16.164z M96.218,170.068v-55.387h113.228c3.926,10.7,12.266,39.906,5.86,81.809H102.934
		C98.529,188.401,96.218,179.349,96.218,170.068z M44.68,268.041v-55.387h53.668h59.528c4.741,13.12,15.993,53.814-0.55,110.769
		h-57.262C69.527,323.422,44.68,298.578,44.68,268.041z M273.873,328.792c23.207-44.28,25.294-85.288,24.702-104.37
		c34.807,16.723,59.91,49.814,65.746,89.402c0.474,3.214,0.812,6.474,1.028,9.768c-4.999,6.593-22.806,27.746-54.006,40.652
		C303.703,348.27,290.314,335.561,273.873,328.792z M306.576,434.279c7.416-11.278,11.736-24.767,11.736-39.244
		c0-5.319-0.601-10.497-1.706-15.488c21.389-8.675,37.231-20.794,47.763-30.831C359.076,385.201,337.168,416.378,306.576,434.279z
		 M381.182,318.777c-0.004-0.042-0.011-0.083-0.014-0.124c-0.161-1.693-0.359-3.378-0.582-5.057
		c-0.039-0.294-0.077-0.588-0.117-0.881c-0.227-1.629-0.484-3.252-0.769-4.867c-0.054-0.306-0.111-0.611-0.167-0.917
		c-0.301-1.636-0.626-3.265-0.986-4.885c-0.046-0.208-0.097-0.414-0.144-0.621c-0.365-1.608-0.758-3.207-1.181-4.797
		c-0.035-0.131-0.066-0.263-0.101-0.393c-0.438-1.622-0.913-3.232-1.409-4.833c-0.087-0.281-0.172-0.563-0.262-0.844
		c-0.492-1.548-1.014-3.087-1.561-4.615c-0.107-0.298-0.216-0.595-0.325-0.892c-0.566-1.543-1.154-3.076-1.776-4.597
		c-0.046-0.114-0.093-0.228-0.139-0.343c19.618-8.545,34.29-19.882,44.241-29.362C412.088,276.522,399.848,300.537,381.182,318.777z
		"/>
</g>
</svg>